<?xml version="1.0" encoding="UTF-8" standalone="no"?>
<!-- Created with Inkscape (http://www.inkscape.org/) -->

<svg
   xmlns:dc="http://purl.org/dc/elements/1.1/"
   xmlns:cc="http://creativecommons.org/ns#"
   xmlns:rdf="http://www.w3.org/1999/02/22-rdf-syntax-ns#"
   xmlns:svg="http://www.w3.org/2000/svg"
   xmlns="http://www.w3.org/2000/svg"
   xmlns:xlink="http://www.w3.org/1999/xlink"
   xmlns:sodipodi="http://sodipodi.sourceforge.net/DTD/sodipodi-0.dtd"
   xmlns:inkscape="http://www.inkscape.org/namespaces/inkscape"
   width="114.47066mm"
   height="114.47066mm"
   viewBox="0 0 114.47066 114.47066"
   version="1.1"
   id="svg8"
   sodipodi:docname="logo.svg"
   inkscape:version="0.92.3 (2405546, 2018-03-11)"
   inkscape:export-filename="/home/bucki/Dokumente/Webseiten/Brick.camp/images/Logo_20180608_06.png"
   inkscape:export-xdpi="225"
   inkscape:export-ydpi="225"
   style="enable-background:new">
  <defs
     id="defs2">
    <linearGradient
       inkscape:collect="always"
       id="linearGradient965">
      <stop
         style="stop-color:#870608;stop-opacity:1"
         offset="0"
         id="stop961" />
      <stop
         style="stop-color:#c4090c;stop-opacity:1"
         offset="1"
         id="stop963" />
    </linearGradient>
    <radialGradient
       inkscape:collect="always"
       xlink:href="#linearGradient965"
       id="radialGradient967"
       cx="84.501442"
       cy="77.765236"
       fx="84.501442"
       fy="77.765236"
       r="37.437382"
       gradientTransform="matrix(0.73945335,0.84256781,-1.2201784,1.0708513,103.72087,-86.702827)"
       gradientUnits="userSpaceOnUse" />
    <clipPath
       clipPathUnits="userSpaceOnUse"
       id="clipPath1376">
      <path
         style="display:inline;fill:#6a4c49;fill-opacity:1;stroke:none;stroke-width:0.26458332px;stroke-linecap:butt;stroke-linejoin:miter;stroke-miterlimit:4;stroke-dasharray:none;stroke-opacity:1"
         d="m 115.72401,29.624122 62.17718,6.357965 54.25198,-1.335629 0.12468,-35.7258974 z"
         id="path1378"
         inkscape:connector-curvature="0"
         sodipodi:nodetypes="ccccc"
         inkscape:export-xdpi="225"
         inkscape:export-ydpi="225" />
    </clipPath>
  </defs>
  <sodipodi:namedview
     id="base"
     pagecolor="#ffffff"
     bordercolor="#666666"
     borderopacity="1.0"
     inkscape:pageopacity="0"
     inkscape:pageshadow="2"
     inkscape:zoom="0.9899495"
     inkscape:cx="288.36054"
     inkscape:cy="109.43125"
     inkscape:document-units="mm"
     inkscape:current-layer="layer6"
     showgrid="false"
     inkscape:snap-others="false"
     inkscape:object-nodes="false"
     inkscape:object-paths="false"
     inkscape:window-width="1920"
     inkscape:window-height="1053"
     inkscape:window-x="0"
     inkscape:window-y="27"
     inkscape:window-maximized="1"
     inkscape:snap-nodes="false"
     showborder="false"
     inkscape:pagecheckerboard="false"
     fit-margin-top="0"
     fit-margin-left="0"
     fit-margin-right="0"
     fit-margin-bottom="0" />
  <metadata
     id="metadata5">
    <rdf:RDF>
      <cc:Work
         rdf:about="">
        <dc:format>image/svg+xml</dc:format>
        <dc:type
           rdf:resource="http://purl.org/dc/dcmitype/StillImage" />
        <dc:title></dc:title>
      </cc:Work>
    </rdf:RDF>
  </metadata>
  <g
     inkscape:groupmode="layer"
     id="layer8"
     inkscape:label="Logo"
     transform="translate(-50.242668,-1.4656715)">
    <g
       inkscape:groupmode="layer"
       id="layer6"
       inkscape:label="Circle"
       style="display:inline">
      <circle
         style="opacity:1;fill:#808000;fill-opacity:1;stroke:#242400;stroke-width:5;stroke-linecap:round;stroke-linejoin:bevel;stroke-miterlimit:4;stroke-dasharray:none;stroke-opacity:1;paint-order:stroke fill markers"
         id="path1382"
         cx="107.478"
         cy="58.701"
         r="54.735329"
         inkscape:export-xdpi="16.641819"
         inkscape:export-ydpi="16.641819" />
      <path
         style="display:inline;opacity:1;fill:#d6d6ff;fill-opacity:1;stroke:none;stroke-width:2.68899989;stroke-linecap:round;stroke-linejoin:bevel;stroke-miterlimit:4;stroke-dasharray:none;stroke-opacity:1;paint-order:stroke fill markers"
         d="m 162.16084,61.119894 c 0,0 -81.107543,1.877013 -109.203175,2.465872 m 0,0 c 0,0 -0.214996,-3.238521 -0.214996,-4.884759 -10e-7,-30.22949 24.505843,-54.7353318 54.735331,-54.7353301 30.22949,-6e-7 54.73533,24.5058411 54.73533,54.7353301 0,0.81053 -0.0176,1.616949 -0.0525,2.418887"
         id="path1382-8"
         inkscape:connector-curvature="0"
         sodipodi:nodetypes="cccsssc" />
    </g>
    <g
       inkscape:groupmode="layer"
       id="layer7"
       inkscape:label="Sun"
       style="display:inline">
      <circle
         style="display:inline;opacity:1;fill:#ffff00;fill-opacity:1;stroke:#ffcd00;stroke-width:1.5;stroke-linecap:round;stroke-linejoin:bevel;stroke-miterlimit:4;stroke-dasharray:none;stroke-opacity:1;paint-order:stroke fill markers"
         id="path1382-9"
         cx="127.95208"
         cy="25.587116"
         r="15.077134" />
    </g>
    <g
       inkscape:groupmode="layer"
       id="layer4"
       inkscape:label="Shadow"
       style="display:inline">
      <flowRoot
         xml:space="preserve"
         id="flowRoot1017"
         style="font-style:normal;font-weight:normal;font-size:40px;line-height:1.25;font-family:sans-serif;letter-spacing:0px;word-spacing:0px;fill:#000000;fill-opacity:1;stroke:none"
         transform="scale(0.26458333)"><flowRegion
           id="flowRegion1019"><rect
             id="rect1021"
             width="124.24876"
             height="71.720833"
             x="654.57886"
             y="98.225014" /></flowRegion><flowPara
           id="flowPara1023" /></flowRoot>      <flowRoot
         xml:space="preserve"
         id="flowRoot1025"
         style="font-style:normal;font-weight:normal;font-size:40px;line-height:1.25;font-family:sans-serif;letter-spacing:0px;word-spacing:0px;fill:#000000;fill-opacity:1;stroke:none"
         transform="scale(0.26458333)"><flowRegion
           id="flowRegion1027"><rect
             id="rect1029"
             width="242.43661"
             height="103.03556"
             x="697.00525"
             y="110.34684" /></flowRegion><flowPara
           id="flowPara1031" /></flowRoot>      <path
         style="fill:#242400;fill-opacity:1;stroke:none;stroke-width:0.26501766px;stroke-linecap:butt;stroke-linejoin:miter;stroke-miterlimit:4;stroke-dasharray:none;stroke-opacity:1"
         d="M 56.989941,66.885283 94.627194,92.682157 132.54702,107.26421 158.99793,66.159229 Z"
         id="path1015"
         inkscape:connector-curvature="0"
         sodipodi:nodetypes="ccccc"
         inkscape:export-xdpi="225"
         inkscape:export-ydpi="225" />
    </g>
    <g
       inkscape:groupmode="layer"
       id="layer5"
       inkscape:label="Camp">
      <g
         aria-label="CAMP"
         transform="matrix(0.68375943,0.297109,-0.74123014,1.1515012,-0.37209213,-1.5604893)"
         style="font-style:normal;font-weight:normal;font-size:12.26472473px;line-height:1.25;font-family:sans-serif;letter-spacing:0px;word-spacing:0px;display:inline;fill:#808000;fill-opacity:1;stroke:#808000;stroke-width:1.0347023;stroke-miterlimit:4;stroke-dasharray:none;stroke-opacity:1"
         id="text1113"
         inkscape:export-xdpi="225"
         inkscape:export-ydpi="225"
         clip-path="url(#clipPath1376)">
        <path
           d="m 172.793,35.620701 q -1.28602,0.0044 -2.14114,-0.660019 -0.84312,-0.664495 -1.08365,-1.82218 -0.24055,-1.157681 0.20879,-2.557003 0.44531,-1.386717 1.42659,-2.536022 0.98538,-1.161912 2.25758,-1.833706 1.28827,-0.68444 2.57428,-0.688875 0.91344,-0.0032 1.49349,0.246698 0.5921,0.249807 1.09096,0.827344 0.10779,0.112961 0.11539,0.23886 0.0115,0.113292 -0.0412,0.277178 -0.0805,0.252128 -0.31388,0.416636 -0.22087,0.164464 -0.44922,0.165251 -0.22841,9.09e-4 -0.36806,-0.162432 -0.35107,-0.43953 -0.7591,-0.627008 -0.40396,-0.200086 -1.14912,-0.197517 -0.93745,0.0032 -1.89669,0.522837 -0.94717,0.519561 -1.70332,1.416238 -0.74007,0.884032 -1.07606,1.930371 -0.34004,1.058946 -0.16667,1.939824 0.18537,0.88084 0.80061,1.395011 0.62729,0.51413 1.56474,0.510897 1.15384,-0.004 2.47864,-0.839658 0.25289,-0.151982 0.44519,-0.152646 0.22839,-9.1e-4 0.31591,0.175206 0.10364,0.163345 0.0146,0.440688 -0.0855,0.264736 -0.34208,0.467103 -1.65021,1.101243 -3.29678,1.106923 z"
           style="letter-spacing:-0.80473793px;fill:#808000;fill-opacity:1;stroke:#808000;stroke-width:0.95105916;stroke-miterlimit:4;stroke-dasharray:none;stroke-opacity:1"
           id="path1241"
           inkscape:connector-curvature="0" />
        <path
           inkscape:connector-curvature="0"
           d="m 193.05816,35.067492 q 0.0791,0.297247 0.0611,0.503748 -0.0415,0.48184 -0.38683,0.829107 -0.34496,0.34727 -0.80703,0.35182 -0.31506,0.0031 -0.59315,-0.177562 -0.25511,-0.203815 -0.35122,-0.546744 l -0.89705,-3.20067 -7.54026,0.07422 -1.47633,3.224031 q -0.17693,0.345617 -0.46792,0.554807 -0.28899,0.186243 -0.60405,0.189345 -0.46208,0.0046 -0.74721,-0.336521 -0.26216,-0.364219 -0.22028,-0.846056 0.0201,-0.229446 0.15085,-0.528761 l 7.23982,-15.453935 q 0.38484,-0.806162 1.09897,-0.813191 0.75612,-0.0074 0.95939,0.792931 z m -9.60779,-4.146556 6.07,-0.05975 -2.29368,-8.138723 z"
           style="letter-spacing:-0.80473793px;fill:#808000;fill-opacity:1;stroke:#808000;stroke-width:0.99172443;stroke-miterlimit:4;stroke-dasharray:none;stroke-opacity:1"
           id="path1243" />
        <path
           inkscape:connector-curvature="0"
           d="m 213.23793,8.6316833 c 0.48146,0.015924 0.88275,0.2154161 1.2039,0.5984657 0.32113,0.3830491 0.47647,0.847515 0.46603,1.393394 l -0.48237,25.197288 c -0.0102,0.546577 -0.1943,0.99912 -0.55158,1.359728 -0.33538,0.36133 -0.73285,0.534396 -1.19244,0.519192 -0.48144,-0.01598 -0.88273,-0.215417 -1.20387,-0.598468 -0.32114,-0.38305 -0.47648,-0.847513 -0.46603,-1.393392 l 0.3541,-18.497864 -5.84981,18.683862 c -0.25775,0.418523 -0.59002,0.621433 -0.99682,0.608732 -0.47945,-0.01499 -0.82173,-0.27996 -1.02683,-0.794969 l -4.91119,-11.941488 -0.30294,12.00017 c -0.009,0.360666 -0.12568,0.660543 -0.34986,0.899641 -0.22413,0.239102 -0.49602,0.353663 -0.81564,0.343682 -0.31964,-0.0099 -0.58531,-0.141325 -0.79705,-0.394037 -0.21171,-0.252707 -0.31303,-0.559393 -0.30393,-0.920055 l 0.42026,-16.647774 c 0.009,-0.360667 0.12568,-0.660544 0.34987,-0.899645 0.22414,-0.239098 0.49602,-0.35366 0.81564,-0.34368 0.43587,0.01357 0.76424,0.253556 0.9851,0.719837 l 6.1032,14.833456 7.0223,-23.733898 c 0.36345,-0.6831708 0.87344,-1.0138967 1.52996,-0.9921777 z"
           style="letter-spacing:-0.80473793px;fill:#808000;fill-opacity:1;stroke:#808000;stroke-width:1.85620248;stroke-miterlimit:4;stroke-dasharray:none;stroke-opacity:1"
           id="path1245"
           sodipodi:nodetypes="scsscscsccsccscscsscscccs" />
        <path
           inkscape:connector-curvature="0"
           d="m 220.56833,36.113733 q -0.62702,-0.06207 -1.0524,-0.696491 -0.42537,-0.634414 -0.42224,-1.502815 l 0.0963,-26.7231289 q 0.003,-0.9078776 0.43276,-1.4181731 0.42965,-0.5497697 1.05666,-0.4876962 l 5.70017,0.5643039 q 2.10906,0.208793 3.75743,1.6750447 1.67686,1.4690745 2.5805,3.8882626 0.93213,2.422007 0.92148,5.382474 -0.0103,2.881518 -0.95903,5.038362 -0.92013,2.159663 -2.60624,3.256326 -1.6576,1.099481 -3.76665,0.89069 l -4.21814,-0.417584 -0.031,8.644556 q -0.004,0.868397 -0.43277,1.418172 -0.40116,0.552592 -1.05669,0.487697 z m 5.75236,-13.922236 q 1.93807,0.191865 3.19821,-1.381321 1.26029,-1.61266 1.26995,-4.296816 0.01,-2.802574 -1.23738,-4.74247 -1.24749,-1.9398987 -3.18557,-2.1317634 l -4.21812,-0.4175833 -0.0452,12.5523697 z"
           style="font-style:normal;font-variant:normal;font-weight:bold;font-stretch:normal;font-size:22.89415359px;font-family:Comfortaa;-inkscape-font-specification:'Comfortaa, Bold';font-variant-ligatures:normal;font-variant-caps:normal;font-variant-numeric:normal;font-feature-settings:normal;text-align:start;letter-spacing:-1.9868176px;writing-mode:lr-tb;text-anchor:start;fill:#808000;fill-opacity:1;stroke:#808000;stroke-width:1.5161649;stroke-miterlimit:4;stroke-dasharray:none;stroke-opacity:1"
           id="path1247" />
      </g>
    </g>
    <g
       inkscape:groupmode="layer"
       id="layer2"
       inkscape:label="Tent">
      <g
         id="g986"
         transform="translate(-0.46053475,0.32095166)"
         style="stroke:#3e0000;stroke-width:0.60000002;stroke-miterlimit:4;stroke-dasharray:none;stroke-opacity:1"
         inkscape:export-xdpi="225"
         inkscape:export-ydpi="225">
        <path
           inkscape:connector-curvature="0"
           id="path871"
           d="m 114.85897,76.256347 -19.6964,4.802402 -4.276314,-3.741772 37.150464,-52.785733 34.2105,36.348654 -3.0736,4.810856 z"
           style="display:inline;fill:#c4090c;fill-opacity:1;stroke:#3e0000;stroke-width:0.60000002;stroke-linecap:butt;stroke-linejoin:miter;stroke-miterlimit:4;stroke-dasharray:none;stroke-opacity:1" />
        <path
           inkscape:connector-curvature="0"
           id="path873"
           d="M 128.03672,24.531244 87.278117,17.849506 53.869426,63.218507 90.886253,77.316977 Z"
           style="display:inline;fill:url(#radialGradient967);fill-opacity:1;stroke:#3e0000;stroke-width:0.60000002;stroke-linecap:butt;stroke-linejoin:miter;stroke-miterlimit:4;stroke-dasharray:none;stroke-opacity:1"
           sodipodi:nodetypes="ccccc" />
        <path
           inkscape:connector-curvature="0"
           id="path875"
           d="m 53.602156,63.15169 4.00658,3.153619 37.553834,14.75344 -4.276317,-3.741772 z"
           style="display:inline;fill:#870608;fill-opacity:1;stroke:#3e0000;stroke-width:0.60000002;stroke-linecap:butt;stroke-linejoin:miter;stroke-miterlimit:4;stroke-dasharray:none;stroke-opacity:1" />
        <path
           sodipodi:nodetypes="sccccccsccs"
           inkscape:connector-curvature="0"
           id="path835"
           d="m 136.89064,52.425454 c -7.21185,1.274703 -11.33742,7.924984 -12.42943,10.15624 -1.09201,1.995025 -2.93185,7.544227 -2.66459,11.419635 0.26727,3.875408 0.75272,4.79398 0.75272,4.79398 l -7.69037,-2.538962 c 0,0 -0.49381,-0.91022 -0.76108,-4.785627 -0.26726,-3.875408 1.57258,-9.42461 2.66459,-11.419635 1.09201,-2.231256 5.21758,-8.881537 12.42943,-10.15624 2.1021,-0.371548 3.94885,-0.302464 5.47558,0.167329 l 7.50608,2.492127 c -1.55847,-0.398755 -3.30956,-0.477642 -5.28293,-0.128847 z"
           style="fill:#870608;fill-opacity:1;stroke:#3e0000;stroke-width:0.60000002;stroke-linecap:round;stroke-linejoin:round;stroke-miterlimit:4;stroke-dasharray:none;stroke-opacity:1" />
        <path
           sodipodi:nodetypes="cccsccc"
           inkscape:connector-curvature="0"
           id="path835-0"
           d="m 122.54934,78.795309 28.73147,-7.349911 c 1.35343,-4.994185 -0.17625,-11.100339 -2.90893,-14.60533 -2.87769,-3.511022 -6.41957,-5.287285 -11.47498,-4.393735 -7.21185,1.274701 -11.33742,7.924984 -12.42943,10.15624 -1.09201,1.995025 -2.93185,7.544227 -2.66459,11.419635 0.26727,3.875407 0.74646,4.773101 0.74646,4.773101 z"
           style="fill:#c4090c;fill-opacity:1;stroke:#3e0000;stroke-width:0.60000002;stroke-linecap:round;stroke-linejoin:bevel;stroke-miterlimit:4;stroke-dasharray:none;stroke-opacity:1" />
      </g>
    </g>
    <g
       inkscape:groupmode="layer"
       id="layer3"
       inkscape:label="Brick"
       style="opacity:1">
      <g
         aria-label="BRICK"
         transform="matrix(0.11296627,-0.00250836,0,0.1679707,106.03785,40.894717)"
         style="font-style:normal;font-weight:normal;font-size:40px;line-height:1.25;font-family:sans-serif;letter-spacing:0px;word-spacing:0px;fill:#3e0000;fill-opacity:1;stroke:#3e0000;stroke-width:3.62976789;stroke-miterlimit:4;stroke-dasharray:none;stroke-opacity:1"
         id="flowRoot996-0"
         inkscape:export-xdpi="225"
         inkscape:export-ydpi="225">
        <g
           id="g874"
           transform="matrix(1.1652969,-0.183767,0.14739991,1.1229295,-533.22529,120.06899)"
           style="fill:#3e0000;fill-opacity:1;stroke:#3e0000;stroke-width:3.14076328;stroke-miterlimit:4;stroke-dasharray:none;stroke-opacity:1">
          <path
             inkscape:connector-curvature="0"
             id="path858"
             style="font-style:normal;font-variant:normal;font-weight:normal;font-stretch:normal;font-size:74.66666412px;font-family:Comfortaa;-inkscape-font-specification:'Comfortaa, Normal';font-variant-ligatures:normal;font-variant-caps:normal;font-variant-numeric:normal;font-feature-settings:normal;text-align:start;writing-mode:lr-tb;text-anchor:start;fill:#3e0000;fill-opacity:1;stroke:#3e0000;stroke-width:3.14076328;stroke-miterlimit:4;stroke-dasharray:none;stroke-opacity:1"
             d="m 574.32427,184.42184 q -1.49334,0 -2.38934,-0.74667 -0.896,-0.82133 -0.896,-2.16533 v -52.49067 q 0,-1.26933 0.82134,-2.09066 0.82133,-0.82134 2.09066,-0.82134 h 18.144 q 4.48,0 8.064,1.94134 3.65867,1.86666 5.74933,5.22666 2.16534,3.36 2.16534,7.54134 0,3.95733 -2.16534,7.09333 -2.09066,3.136 -5.67466,4.85333 5.152,1.41867 8.13866,5.152 2.98667,3.65867 2.98667,9.25867 0,5.00267 -2.31467,8.96 -2.31466,3.88267 -6.42133,6.12267 -4.032,2.16533 -9.25867,2.16533 z m 17.77066,-33.97333 q 4.55467,0 7.392,-2.53867 2.912,-2.61333 2.912,-7.09333 0,-4.33067 -2.83733,-6.72 -2.83734,-2.38934 -7.46667,-2.38934 h -15.232 v 18.74134 z m 1.26933,28.37333 q 5.45067,0 8.81067,-3.136 3.43467,-3.21067 3.43467,-8.512 0,-5.07733 -3.43467,-8.064 -3.36,-3.06133 -8.81067,-3.06133 h -16.50133 v 22.77333 z" />
          <path
             inkscape:connector-curvature="0"
             id="path860"
             style="font-style:normal;font-variant:normal;font-weight:normal;font-stretch:normal;font-size:74.66666412px;font-family:Comfortaa;-inkscape-font-specification:'Comfortaa, Normal';font-variant-ligatures:normal;font-variant-caps:normal;font-variant-numeric:normal;font-feature-settings:normal;text-align:start;writing-mode:lr-tb;text-anchor:start;fill:#3e0000;fill-opacity:1;stroke:#3e0000;stroke-width:3.14076328;stroke-miterlimit:4;stroke-dasharray:none;stroke-opacity:1"
             d="m 654.70864,179.94184 q 0.672,1.12 0.672,2.016 0,1.12 -0.82134,1.792 -0.82133,0.672 -2.16533,0.672 -0.896,0 -1.49333,-0.37333 -0.59733,-0.37334 -1.04533,-1.12 l -13.44,-21.35467 h -1.26934 -11.05066 v 19.936 q 0,1.26933 -0.82134,2.09067 -0.82133,0.82133 -2.09066,0.82133 -1.26934,0 -2.09067,-0.82133 -0.82133,-0.82134 -0.82133,-2.09067 v -52.49067 q 0,-1.26933 0.82133,-2.09066 0.82133,-0.82134 2.09067,-0.82134 h 13.96266 q 5.45067,0 9.70667,2.31467 4.256,2.24 6.64533,6.34667 2.464,4.10666 2.464,9.33333 0,5.74933 -3.136,10.08 -3.06133,4.33067 -8.36266,6.19733 z m -19.56267,-23.968 q 3.73334,0 6.72,-1.49333 3.06134,-1.568 4.704,-4.256 1.71734,-2.688 1.71734,-6.12267 0,-3.584 -1.71734,-6.42133 -1.64266,-2.83734 -4.62933,-4.40534 -2.98667,-1.568 -6.79467,-1.568 h -11.05066 v 24.26667 z" />
          <path
             inkscape:connector-curvature="0"
             id="path862"
             style="font-style:normal;font-variant:normal;font-weight:normal;font-stretch:normal;font-size:74.66666412px;font-family:Comfortaa;-inkscape-font-specification:'Comfortaa, Normal';font-variant-ligatures:normal;font-variant-caps:normal;font-variant-numeric:normal;font-feature-settings:normal;text-align:start;writing-mode:lr-tb;text-anchor:start;fill:#3e0000;fill-opacity:1;stroke:#3e0000;stroke-width:3.14076328;stroke-miterlimit:4;stroke-dasharray:none;stroke-opacity:1"
             d="m 662.58235,184.42184 q -1.19466,0 -2.09066,-0.82133 -0.82134,-0.896 -0.82134,-2.09067 v -52.49067 q 0,-1.26933 0.82134,-2.09066 0.896,-0.82134 2.09066,-0.82134 1.26934,0 2.09067,0.82134 0.82133,0.82133 0.82133,2.09066 v 52.49067 q 0,1.19467 -0.82133,2.09067 -0.82133,0.82133 -2.09067,0.82133 z" />
          <path
             inkscape:connector-curvature="0"
             id="path864"
             style="font-style:normal;font-variant:normal;font-weight:normal;font-stretch:normal;font-size:74.66666412px;font-family:Comfortaa;-inkscape-font-specification:'Comfortaa, Normal';font-variant-ligatures:normal;font-variant-caps:normal;font-variant-numeric:normal;font-feature-settings:normal;text-align:start;writing-mode:lr-tb;text-anchor:start;fill:#3e0000;fill-opacity:1;stroke:#3e0000;stroke-width:3.14076328;stroke-miterlimit:4;stroke-dasharray:none;stroke-opacity:1"
             d="m 701.90239,185.16851 q -7.91467,0 -14.56,-4.032 -6.64533,-4.032 -10.60267,-10.90134 -3.88266,-6.86933 -3.88266,-15.008 0,-8.064 3.88266,-14.93333 3.88267,-6.86933 10.528,-10.90133 6.64534,-4.032 14.63467,-4.032 5.376,0 9.78133,1.568 4.40534,1.568 8.512,5.00266 0.82134,0.59734 0.82134,1.71734 0,0.59733 -0.29867,1.12 -0.29867,0.448 -0.82133,0.672 -0.14934,0.52266 -0.672,0.82133 -0.52267,0.29867 -1.12,0.29867 -1.12,0 -1.86667,-0.672 -2.912,-2.61334 -6.34667,-3.808 -3.43466,-1.19467 -7.98933,-1.19467 -6.272,0 -11.648,3.36 -5.376,3.28533 -8.58667,8.88533 -3.136,5.6 -3.136,12.096 0,6.64534 3.136,12.24534 3.136,5.6 8.512,8.88533 5.376,3.28533 11.72267,3.28533 8.13867,0 14.70933,-5.22666 0.82134,-0.59734 1.64267,-0.59734 1.12,0 1.94133,0.82134 0.82134,0.74666 0.82134,2.016 0,1.19466 -0.82134,2.09066 -7.01866,6.42134 -18.29333,6.42134 z" />
          <path
             inkscape:connector-curvature="0"
             id="path866"
             style="font-style:normal;font-variant:normal;font-weight:normal;font-stretch:normal;font-size:74.66666412px;font-family:Comfortaa;-inkscape-font-specification:'Comfortaa, Normal';font-variant-ligatures:normal;font-variant-caps:normal;font-variant-numeric:normal;font-feature-settings:normal;text-align:start;writing-mode:lr-tb;text-anchor:start;fill:#3e0000;fill-opacity:1;stroke:#3e0000;stroke-width:3.14076328;stroke-miterlimit:4;stroke-dasharray:none;stroke-opacity:1"
             d="m 731.52627,184.42184 q -1.19466,0 -2.09066,-0.82133 -0.82134,-0.896 -0.82134,-2.09067 v -52.49067 q 0,-1.19466 0.82134,-2.016 0.896,-0.896 2.09066,-0.896 1.26934,0 2.09067,0.82134 0.82133,0.82133 0.82133,2.09066 v 25.38667 l 27.25333,-27.25333 q 1.04534,-1.04534 2.31467,-1.04534 1.26933,0 1.94133,0.74667 0.74667,0.74667 0.74667,1.86667 0,1.344 -0.97067,2.38933 l -20.45866,20.45867 20.68266,28.224 q 0.59734,0.97066 0.59734,1.792 0,1.12 -0.82134,2.016 -0.74666,0.82133 -1.86666,0.82133 -1.64267,0 -2.464,-1.26933 l -20.30934,-27.47734 -6.64533,6.72 v 19.11467 q 0,1.19467 -0.82133,2.09067 -0.82133,0.82133 -2.09067,0.82133 z" />
        </g>
      </g>
    </g>
  </g>
</svg>
