<?xml version="1.0" encoding="UTF-8" standalone="no"?>
<!-- Created with Inkscape (http://www.inkscape.org/) -->

<svg
   xmlns:dc="http://purl.org/dc/elements/1.1/"
   xmlns:cc="http://creativecommons.org/ns#"
   xmlns:rdf="http://www.w3.org/1999/02/22-rdf-syntax-ns#"
   xmlns:svg="http://www.w3.org/2000/svg"
   xmlns="http://www.w3.org/2000/svg"
   xmlns:sodipodi="http://sodipodi.sourceforge.net/DTD/sodipodi-0.dtd"
   xmlns:inkscape="http://www.inkscape.org/namespaces/inkscape"
   width="50.648811mm"
   height="50.648811mm"
   viewBox="0 0 50.64881 50.648812"
   version="1.1"
   id="svg8"
   sodipodi:docname="logo_bot.svg"
   inkscape:version="0.92.4 (unknown)"
   inkscape:export-xdpi="250.74626"
   inkscape:export-ydpi="250.74626"
   style="enable-background:new">
  <defs
     id="defs2">
    <clipPath
       clipPathUnits="userSpaceOnUse"
       id="clipPath1376">
      <path
         style="display:inline;fill:#6a4c49;fill-opacity:1;stroke:none;stroke-width:0.26458332px;stroke-linecap:butt;stroke-linejoin:miter;stroke-miterlimit:4;stroke-dasharray:none;stroke-opacity:1"
         d="m 115.72401,29.624122 62.17718,6.357965 54.25198,-1.335629 0.12468,-35.7258974 z"
         id="path1378"
         inkscape:connector-curvature="0"
         sodipodi:nodetypes="ccccc"
         inkscape:export-xdpi="225"
         inkscape:export-ydpi="225" />
    </clipPath>
    <clipPath
       clipPathUnits="userSpaceOnUse"
       id="clipPath1376-1">
      <path
         style="display:inline;fill:#6a4c49;fill-opacity:1;stroke:none;stroke-width:0.26458332px;stroke-linecap:butt;stroke-linejoin:miter;stroke-miterlimit:4;stroke-dasharray:none;stroke-opacity:1"
         d="m 115.72401,29.624122 62.17718,6.357965 54.25198,-1.335629 0.12468,-35.7258974 z"
         id="path1378-5"
         inkscape:connector-curvature="0"
         sodipodi:nodetypes="ccccc"
         inkscape:export-xdpi="225"
         inkscape:export-ydpi="225" />
    </clipPath>
  </defs>
  <sodipodi:namedview
     id="base"
     pagecolor="#ffffff"
     bordercolor="#666666"
     borderopacity="1.0"
     inkscape:pageopacity="0"
     inkscape:pageshadow="2"
     inkscape:zoom="0.9899495"
     inkscape:cx="219.30575"
     inkscape:cy="161.83375"
     inkscape:document-units="mm"
     inkscape:current-layer="g1016"
     showgrid="false"
     inkscape:snap-others="false"
     inkscape:object-nodes="false"
     inkscape:object-paths="false"
     inkscape:window-width="1920"
     inkscape:window-height="1053"
     inkscape:window-x="0"
     inkscape:window-y="27"
     inkscape:window-maximized="1"
     inkscape:snap-nodes="false"
     showborder="true"
     inkscape:pagecheckerboard="false"
     fit-margin-top="0"
     fit-margin-left="0"
     fit-margin-right="0"
     fit-margin-bottom="0"
     showguides="false" />
  <metadata
     id="metadata5">
    <rdf:RDF>
      <cc:Work
         rdf:about="">
        <dc:format>image/svg+xml</dc:format>
        <dc:type
           rdf:resource="http://purl.org/dc/dcmitype/StillImage" />
        <dc:title />
      </cc:Work>
    </rdf:RDF>
  </metadata>
  <g
     inkscape:groupmode="layer"
     id="layer2"
     inkscape:label="Logo"
     style="display:inline"
     transform="translate(-80.964485,-33.748013)">
    <rect
       style="opacity:1;vector-effect:none;fill:#00aa00;fill-opacity:1;stroke:none;stroke-width:2;stroke-linecap:round;stroke-linejoin:miter;stroke-miterlimit:4;stroke-dasharray:none;stroke-dashoffset:7.34759998;stroke-opacity:1;paint-order:fill markers stroke"
       id="rect4551"
       width="50.648811"
       height="50.648811"
       x="80.964485"
       y="33.748013" />
    <g
       id="g1016"
       transform="matrix(1.224697,0.37963266,-0.37963266,1.224697,-1.4569735,-53.624129)">
      <path
         inkscape:transform-center-y="-0.006192938"
         inkscape:transform-center-x="-0.097878149"
         d="m 115.96666,66.763975 c -0.68213,0.867563 1.41226,3.161166 0.58984,3.897098 -0.82242,0.735933 -2.87018,-1.599394 -3.8079,-1.017453 -0.93771,0.58194 0.24591,3.453545 -0.77861,3.863812 -1.02452,0.410267 -2.15006,-2.484598 -3.23026,-2.258471 -1.0802,0.226127 -0.95011,3.329377 -2.05316,3.364494 -1.10306,0.03512 -1.17062,-3.070124 -2.26302,-3.227084 -1.09239,-0.15696 -2.03152,2.803636 -3.08006,2.459368 -1.04855,-0.344268 -0.05,-3.285346 -1.02281,-3.806462 -0.972831,-0.521116 -2.867902,1.939735 -3.735465,1.257606 -0.867563,-0.68213 1.076694,-3.104308 0.340762,-3.926725 -0.735932,-0.822418 -3.358377,0.841874 -3.940318,-0.09584 -0.58194,-0.937716 2.073498,-2.548844 1.663231,-3.573367 -0.410267,-1.024523 -3.44378,-0.35753 -3.669907,-1.43773 -0.226128,-1.080201 2.820206,-1.685952 2.785089,-2.789008 -0.03512,-1.103057 -3.113812,-1.513811 -2.956852,-2.606207 0.15696,-1.092397 3.226756,-0.619709 3.571024,-1.668254 0.344269,-1.048545 -2.408272,-2.487503 -1.887156,-3.460336 0.521115,-0.972834 3.244112,0.521279 3.926242,-0.346284 0.682129,-0.867563 -1.412261,-3.161166 -0.589843,-3.897098 0.822417,-0.735932 2.87018,1.599394 3.807896,1.017454 0.937717,-0.581941 -0.245908,-3.453546 0.778617,-3.863813 1.02452,-0.410266 2.15006,2.484599 3.23026,2.258472 1.0802,-0.226128 0.95011,-3.329377 2.05316,-3.364494 1.10306,-0.03512 1.17062,3.070123 2.26301,3.227083 1.0924,0.15696 2.03152,-2.803636 3.08007,-2.459368 1.04854,0.344269 0.05,3.285347 1.02281,3.806462 0.97283,0.521116 2.8679,-1.939735 3.73546,-1.257605 0.86757,0.68213 -1.07669,3.104307 -0.34076,3.926725 0.73593,0.822417 3.35838,-0.841874 3.94032,0.09584 0.58194,0.937717 -2.0735,2.548844 -1.66323,3.573367 0.41026,1.024523 3.44378,0.35753 3.6699,1.437731 0.22613,1.0802 -2.8202,1.685951 -2.78508,2.789008 0.0351,1.103056 3.11381,1.51381 2.95685,2.606207 -0.15696,1.092396 -3.22676,0.619709 -3.57103,1.668254 -0.34427,1.048544 2.40828,2.487502 1.88716,3.460336 -0.52112,0.972833 -3.24411,-0.52128 -3.92624,0.346283 z"
         inkscape:randomized="0"
         inkscape:rounded="0.28"
         inkscape:flatsided="false"
         sodipodi:arg2="0.84083921"
         sodipodi:arg1="0.66630628"
         sodipodi:r2="15.542773"
         sodipodi:r1="12.434218"
         sodipodi:cy="59.078552"
         sodipodi:cx="106.19199"
         sodipodi:sides="18"
         id="path955"
         style="display:inline;opacity:1;vector-effect:none;fill:#ffffff;fill-opacity:1;stroke:none;stroke-width:1.99999988;stroke-linecap:round;stroke-linejoin:miter;stroke-miterlimit:4;stroke-dasharray:2.00000014, 4.00000028;stroke-dashoffset:9.07086658;stroke-opacity:1;paint-order:stroke markers fill;enable-background:new"
         sodipodi:type="star" />
      <circle
         r="11.657805"
         cy="59.072418"
         cx="106.28889"
         id="path4557-1"
         style="display:inline;opacity:1;fill:#b3b3b3;fill-opacity:1;stroke:#ffffff;stroke-width:2.5;stroke-linecap:round;stroke-linejoin:miter;stroke-miterlimit:4;stroke-dasharray:none;stroke-dashoffset:2.4000001;stroke-opacity:1;paint-order:normal;enable-background:new" />
      <circle
         r="16.495586"
         cy="59.072418"
         cx="106.28889"
         id="path4557-1-3"
         style="display:inline;opacity:1;fill:none;fill-opacity:1;stroke:#00aa00;stroke-width:2.99999976;stroke-linecap:round;stroke-linejoin:miter;stroke-miterlimit:4;stroke-dasharray:none;stroke-dashoffset:2.4000001;stroke-opacity:1;paint-order:normal;enable-background:new" />
      <ellipse
         style="opacity:1;vector-effect:none;fill:#ffffff;fill-opacity:1;stroke:none;stroke-width:2.67025971;stroke-linecap:round;stroke-linejoin:miter;stroke-miterlimit:4;stroke-dasharray:none;stroke-dashoffset:9.07086658;stroke-opacity:1;paint-order:normal"
         id="path827"
         cx="82.281807"
         cy="84.735374"
         transform="rotate(-17.222435)"
         rx="1.9694268"
         ry="3.1681237" />
      <ellipse
         style="display:inline;opacity:1;vector-effect:none;fill:#ffffff;fill-opacity:1;stroke:none;stroke-width:2.67025995;stroke-linecap:round;stroke-linejoin:miter;stroke-miterlimit:4;stroke-dasharray:none;stroke-dashoffset:9.07086658;stroke-opacity:1;paint-order:normal;enable-background:new"
         id="path827-6"
         cx="88.652191"
         cy="84.735382"
         transform="rotate(-17.222437)"
         rx="1.9694268"
         ry="3.1681237" />
    </g>
    <path
       style="display:inline;opacity:1;vector-effect:none;fill:#002b00;fill-opacity:1;stroke:#ffffff;stroke-width:6;stroke-linecap:round;stroke-linejoin:miter;stroke-miterlimit:4;stroke-dasharray:none;stroke-dashoffset:0;stroke-opacity:1;paint-order:markers stroke fill;enable-background:new"
       d="M 131.82306,45.868183 V 84.606594 H 93.543935 Z"
       id="rect4551-8"
       inkscape:connector-curvature="0"
       sodipodi:nodetypes="cccc" />
  </g>
</svg>
